<svg xmlns="http://www.w3.org/2000/svg" width="400" height="400" viewBox="0 0 400 400"><path d="M 390 200 L 35.45517328095664 295 L 295 35.45517328095667 L 200.00000000000006 390 L 105.00000000000003 35.45517328095664 L 364.54482671904344 294.99999999999983 L 10 200.0000000000001 L 364.54482671904333 104.99999999999999 L 104.99999999999994 364.5448267190433 L 200.00000000000017 10 L 295.00000000000034 364.54482671904316 L 35.45517328095684 104.9999999999997 L 390 199.99999999999977 Z " stroke="#cc3333" fill="#cc3333" /><path d="M 338.95720330764243 200 L 130.52139834617884 320.34046810325736 L 130.52139834617873 79.65953189674269 L 338.95720330764243 199.99999999999997 L 130.5213983461789 320.3404681032574 L 130.52139834617884 79.65953189674265 L 338.95720330764243 199.99999999999994 L 130.52139834617873 320.3404681032573 L 130.5213983461786 79.65953189674279 L 338.95720330764243 199.9999999999999 L 130.52139834617876 320.3404681032573 L 130.52139834617856 79.6595318967428 L 338.95720330764243 199.99999999999986 Z M 320.34046810325736 269.4786016538212 L 79.65953189674265 269.4786016538212 L 199.99999999999997 61.0427966923576 L 320.3404681032574 269.4786016538211 L 79.65953189674264 269.47860165382116 L 199.99999999999994 61.0427966923576 L 320.3404681032574 269.4786016538211 L 79.65953189674266 269.4786016538212 L 200.00000000000014 61.0427966923576 L 320.3404681032572 269.47860165382144 L 79.65953189674268 269.4786016538212 L 200.0000000000001 61.0427966923576 L 320.3404681032575 269.478601653821 Z M 269.4786016538212 320.3404681032573 L 61.0427966923576 200.00000000000003 L 269.4786016538212 79.65953189674266 L 269.47860165382116 320.34046810325736 L 61.0427966923576 200.00000000000006 L 269.4786016538211 79.65953189674258 L 269.4786016538214 320.3404681032572 L 61.0427966923576 200.00000000000009 L 269.4786016538213 79.65953189674269 L 269.478601653821 320.3404681032575 L 61.0427966923576 200.0000000000001 L 269.4786016538212 79.65953189674268 L 269.47860165382144 320.3404681032572 Z M 200 338.95720330764243 L 79.65953189674266 130.52139834617878 L 320.3404681032573 130.52139834617873 L 200.00000000000003 338.95720330764243 L 79.6595318967427 130.5213983461787 L 320.34046810325736 130.5213983461788 L 200.0000000000003 338.95720330764243 L 79.65953189674256 130.52139834617896 L 320.3404681032573 130.52139834617878 L 199.99999999999986 338.95720330764243 L 79.65953189674255 130.52139834617896 L 320.3404681032573 130.52139834617876 L 200.0000000000004 338.95720330764243 Z " stroke="#33cc33" fill="#33cc33" /><path d="M 297.8572342329103 200 L 200 297.8572342329103 L 102.14276576708971 200 L 199.99999999999997 102.14276576708971 L 297.8572342329103 199.99999999999997 L 200.00000000000003 297.8572342329103 L 102.14276576708971 200.00000000000003 L 199.99999999999997 102.14276576708971 L 297.8572342329103 199.99999999999994 L 200.00000000000023 297.8572342329103 L 102.14276576708971 200.00000000000006 L 200.0000000000001 102.14276576708971 L 297.8572342329103 199.99999999999991 Z M 284.7468507897845 248.92861711645514 L 151.07138288354489 284.7468507897845 L 115.25314921021548 151.07138288354486 L 248.92861711645514 115.25314921021548 L 284.74685078978456 248.9286171164551 L 151.07138288354494 284.74685078978456 L 115.25314921021551 151.0713828835448 L 248.92861711645506 115.25314921021543 L 284.74685078978456 248.92861711645506 L 151.0713828835448 284.7468507897845 L 115.25314921021541 151.07138288354497 L 248.9286171164552 115.2531492102155 L 284.7468507897844 248.9286171164553 Z M 248.92861711645514 284.7468507897845 L 115.25314921021547 248.92861711645514 L 151.0713828835448 115.2531492102155 L 284.7468507897845 151.0713828835448 L 248.92861711645511 284.74685078978456 L 115.25314921021545 248.92861711645511 L 151.07138288354486 115.25314921021547 L 284.7468507897845 151.07138288354486 L 248.92861711645529 284.74685078978445 L 115.25314921021548 248.92861711645514 L 151.07138288354471 115.25314921021557 L 284.7468507897845 151.07138288354486 L 248.928617116455 284.7468507897846 Z " stroke="#cccc33" fill="#cccc33" /><path d="M 255.55062389731998 200 L 227.77531194866 248.10825149115402 L 172.22468805134002 248.10825149115402 L 144.44937610268002 200 L 172.22468805134 151.89174850884598 L 227.77531194866 151.89174850884598 L 255.55062389731998 200 L 227.77531194865998 248.10825149115402 L 172.22468805134005 248.10825149115405 L 144.44937610268002 200.00000000000003 L 172.22468805134002 151.89174850884598 L 227.77531194865995 151.89174850884595 L 255.55062389731998 199.99999999999997 Z M 248.10825149115402 227.77531194865998 L 200 255.55062389731998 L 151.89174850884598 227.77531194865998 L 151.89174850884598 172.22468805134 L 200 144.44937610268002 L 248.10825149115402 172.22468805134 L 248.10825149115405 227.77531194865995 L 200.00000000000003 255.55062389731998 L 151.89174850884598 227.77531194865998 L 151.891748508846 172.22468805133997 L 199.99999999999997 144.44937610268002 L 248.10825149115402 172.22468805134002 L 248.10825149115405 227.77531194865995 Z " stroke="#337dcc" fill="#337dcc" /></svg>