<svg xmlns="http://www.w3.org/2000/svg" width="400" height="400" viewBox="0 0 400 400"><path d="M 390 200 L 35.45517328095664 295 L 295 35.45517328095667 L 200.00000000000006 390 L 105.00000000000003 35.45517328095664 L 364.54482671904344 294.99999999999983 L 10 200.0000000000001 L 364.54482671904333 104.99999999999999 L 104.99999999999994 364.5448267190433 L 200.00000000000017 10 L 295.00000000000034 364.54482671904316 L 35.4551732809565 105.00000000000028 L 390 199.99999999999977 Z " stroke="#b01010" fill="#b01010" opacity="1" /><path d="M 337.4890826203524 236.84008865621934 L 99.35100603586694 300.64899396413307 L 163.1599113437807 62.510917379647594 L 337.4890826203524 236.84008865621925 L 99.35100603586689 300.648993964133 L 163.15991134378066 62.51091737964762 L 337.4890826203524 236.84008865621922 L 99.3510060358669 300.64899396413307 L 163.1599113437806 62.51091737964762 L 337.48908262035235 236.84008865621942 L 99.3510060358671 300.64899396413324 L 163.15991134378058 62.51091737964765 L 337.4890826203524 236.8400886562194 Z M 300.64899396413307 300.64899396413307 L 62.51091737964762 236.84008865621936 L 236.84008865621928 62.510917379647594 L 300.64899396413307 300.64899396413307 L 62.510917379647594 236.84008865621934 L 236.84008865621922 62.510917379647594 L 300.648993964133 300.64899396413307 L 62.51091737964762 236.84008865621936 L 236.8400886562192 62.510917379647566 L 300.64899396413307 300.64899396413307 L 62.510917379647566 236.84008865621917 L 236.84008865621917 62.510917379647566 L 300.64899396413307 300.64899396413307 Z M 236.84008865621934 337.4890826203524 L 62.510917379647594 163.15991134378066 L 300.64899396413307 99.35100603586692 L 236.84008865621934 337.4890826203524 L 62.510917379647594 163.15991134378075 L 300.64899396413307 99.35100603586699 L 236.84008865621936 337.4890826203524 L 62.510917379647566 163.1599113437808 L 300.6489939641329 99.35100603586677 L 236.8400886562194 337.4890826203524 L 62.51091737964765 163.15991134378058 L 300.64899396413284 99.35100603586676 L 236.84008865621942 337.48908262035235 Z M 163.15991134378066 337.4890826203524 L 99.35100603586692 99.35100603586694 L 337.4890826203524 163.15991134378066 L 163.15991134378075 337.4890826203524 L 99.351006035867 99.35100603586689 L 337.4890826203524 163.15991134378064 L 163.15991134378078 337.4890826203524 L 99.35100603586696 99.35100603586692 L 337.4890826203524 163.15991134378086 L 163.15991134378083 337.4890826203524 L 99.35100603586693 99.35100603586693 L 337.4890826203524 163.15991134378083 L 163.15991134378086 337.4890826203524 Z " stroke="#b0b010" fill="#b0b010" opacity="1" /><path d="M 319.692499740013 200 L 200 319.692499740013 L 80.30750025998705 200.00000000000003 L 199.99999999999997 80.30750025998705 L 319.692499740013 199.99999999999997 L 200.00000000000003 319.692499740013 L 80.30750025998705 200.00000000000006 L 199.99999999999994 80.30750025998705 L 319.692499740013 199.99999999999994 L 200.00000000000006 319.692499740013 L 80.30750025998705 200.00000000000009 L 200.00000000000014 80.30750025998705 L 319.692499740013 199.99999999999991 Z M 303.6567454173136 259.8462498700065 L 140.15375012999357 303.6567454173136 L 96.34325458268647 140.1537501299935 L 259.8462498700065 96.34325458268647 L 303.6567454173135 259.8462498700065 L 140.15375012999363 303.6567454173136 L 96.34325458268641 140.15375012999363 L 259.8462498700064 96.34325458268641 L 303.6567454173136 259.8462498700064 L 140.15375012999345 303.6567454173135 L 96.3432545826864 140.15375012999365 L 259.84624987000655 96.3432545826865 L 303.65674541731363 259.8462498700063 Z M 259.8462498700065 303.6567454173135 L 96.34325458268646 259.8462498700065 L 140.15375012999348 96.3432545826865 L 303.6567454173135 140.15375012999348 L 259.84624987000643 303.6567454173136 L 96.34325458268644 259.84624987000643 L 140.15375012999354 96.34325458268646 L 303.6567454173136 140.15375012999354 L 259.8462498700065 303.6567454173136 L 96.34325458268647 259.8462498700065 L 140.15375012999334 96.34325458268658 L 303.6567454173135 140.1537501299935 L 259.84624987000666 303.6567454173134 Z " stroke="#0f9010" fill="#0f9010" opacity="1" /><path d="M 291.76295349746147 224.58780928473948 L 224.58780928473948 291.76295349746147 L 132.824855787278 267.175144212722 L 108.2370465025385 175.41219071526052 L 175.41219071526055 108.2370465025385 L 267.175144212722 132.82485578727795 L 291.76295349746147 224.58780928473942 L 224.58780928473948 291.76295349746147 L 132.82485578727795 267.175144212722 L 108.2370465025385 175.41219071526058 L 175.41219071526052 108.23704650253852 L 267.17514421272205 132.824855787278 L 291.7629534974615 224.5878092847394 Z M 267.175144212722 267.175144212722 L 175.41219071526052 291.76295349746147 L 108.23704650253852 224.5878092847395 L 132.82485578727795 132.824855787278 L 224.58780928473942 108.2370465025385 L 291.76295349746147 175.41219071526052 L 267.17514421272205 267.175144212722 L 175.41219071526058 291.76295349746147 L 108.2370465025385 224.58780928473948 L 132.824855787278 132.82485578727795 L 224.58780928473942 108.2370465025385 L 291.76295349746147 175.41219071526052 L 267.175144212722 267.17514421272205 Z " stroke="#ffffff" fill="#ffffff" opacity="1" /><path d="M 291.76295349746147 224.58780928473948 L 224.58780928473948 291.76295349746147 L 132.824855787278 267.175144212722 L 108.2370465025385 175.41219071526052 L 175.41219071526055 108.2370465025385 L 267.175144212722 132.82485578727795 L 291.76295349746147 224.58780928473942 L 224.58780928473948 291.76295349746147 L 132.82485578727795 267.175144212722 L 108.2370465025385 175.41219071526058 L 175.41219071526052 108.23704650253852 L 267.17514421272205 132.824855787278 L 291.7629534974615 224.5878092847394 Z M 267.175144212722 267.175144212722 L 175.41219071526052 291.76295349746147 L 108.23704650253852 224.5878092847395 L 132.82485578727795 132.824855787278 L 224.58780928473942 108.2370465025385 L 291.76295349746147 175.41219071526052 L 267.17514421272205 267.175144212722 L 175.41219071526058 291.76295349746147 L 108.2370465025385 224.58780928473948 L 132.824855787278 132.82485578727795 L 224.58780928473942 108.2370465025385 L 291.76295349746147 175.41219071526052 L 267.175144212722 267.17514421272205 Z " stroke="#0f9010" fill="#0f9010" opacity="0.55" /></svg>