<svg xmlns="http://www.w3.org/2000/svg" width="150" height="150" viewBox="0 0 150 150"><path d="M 146.25 75 L 110.625 136.70431001964124 L 39.375000000000014 136.70431001964124 L 3.75 75.00000000000001 L 39.37499999999997 13.295689980358766 L 110.625 13.295689980358752 L 146.25 74.99999999999999 L 110.62499999999997 136.70431001964127 L 39.37500000000006 136.7043100196413 L 3.75 75.00000000000003 L 39.375000000000014 13.295689980358745 L 110.62499999999994 13.29568998035871 L 146.25 74.99999999999997 Z M 136.70431001964124 110.625 L 75 146.25 L 13.295689980358745 110.625 L 13.295689980358752 39.37499999999999 L 74.99999999999999 3.75 L 136.70431001964124 39.37499999999997 L 136.70431001964124 110.625 L 75.00000000000003 146.25 L 13.295689980358738 110.62499999999999 L 13.29568998035871 39.37500000000006 L 74.99999999999997 3.75 L 136.70431001964124 39.37500000000001 L 136.7043100196413 110.62499999999994 Z " fill="#b01010" /><path d="M 132 75 L 103.5 124.363448015713 L 46.500000000000014 124.363448015713 L 18 75 L 46.49999999999997 25.63655198428701 L 103.5 25.636551984287003 L 132 74.99999999999999 L 103.49999999999999 124.363448015713 L 46.50000000000004 124.36344801571303 L 18 75.00000000000001 L 46.500000000000014 25.636551984286996 L 103.49999999999994 25.636551984286967 L 132 74.99999999999997 Z M 124.363448015713 103.5 L 75 132 L 25.636551984286996 103.5 L 25.636551984287003 46.49999999999999 L 74.99999999999999 18 L 124.36344801571299 46.49999999999997 L 124.363448015713 103.5 L 75.00000000000001 132 L 25.63655198428699 103.49999999999999 L 25.636551984286967 46.50000000000004 L 74.99999999999997 18 L 124.363448015713 46.50000000000001 L 124.36344801571303 103.49999999999994 Z " fill="rgba(255,255,255,0.8)" /><path d="M 128.4375 75 L 101.71875 121.27823251473095 L 48.281250000000014 121.27823251473095 L 21.5625 75 L 48.28124999999997 28.721767485269076 L 101.71875 28.721767485269062 L 128.4375 74.99999999999999 L 101.71874999999999 121.27823251473095 L 48.28125000000004 121.27823251473097 L 21.5625 75.00000000000001 L 48.281250000000014 28.721767485269055 L 101.71874999999996 28.721767485269034 L 128.4375 74.99999999999997 Z M 121.27823251473095 101.71875 L 75 128.4375 L 28.721767485269055 101.71875 L 28.721767485269062 48.28124999999999 L 74.99999999999999 21.5625 L 121.27823251473092 48.28124999999997 L 121.27823251473095 101.71875 L 75.00000000000001 128.4375 L 28.721767485269048 101.71874999999999 L 28.721767485269034 48.28125000000004 L 74.99999999999997 21.5625 L 121.27823251473095 48.28125000000001 L 121.27823251473097 101.71874999999994 Z " fill="#0f9010" /><path d="M 114.1875 75 L 94.59375 108.93737051080268 L 55.40625000000001 108.9373705108027 L 35.8125 75 L 55.406249999999986 41.06262948919732 L 94.59375 41.06262948919731 L 114.1875 74.99999999999999 L 94.59374999999999 108.9373705108027 L 55.40625000000003 108.93737051080271 L 35.8125 75.00000000000001 L 55.40625000000001 41.062629489197306 L 94.59374999999997 41.06262948919729 L 114.1875 74.99999999999999 Z M 108.9373705108027 94.59375 L 75 114.1875 L 41.062629489197306 94.59375 L 41.06262948919731 55.40625 L 74.99999999999999 35.8125 L 108.93737051080268 55.406249999999986 L 108.93737051080268 94.59375 L 75.00000000000001 114.1875 L 41.062629489197306 94.59375 L 41.06262948919729 55.40625000000003 L 74.99999999999999 35.8125 L 108.9373705108027 55.40625 L 108.93737051080271 94.59374999999997 Z " fill="rgba(255,255,255,0.8)" /><path d="M 113.9025 75 L 94.45125 108.69055327072412 L 55.548750000000005 108.69055327072414 L 36.0975 75 L 55.548749999999984 41.309446729275884 L 94.45125 41.30944672927588 L 113.9025 74.99999999999999 L 94.45124999999999 108.69055327072414 L 55.54875000000003 108.69055327072414 L 36.0975 75.00000000000001 L 55.548750000000005 41.30944672927587 L 94.45124999999996 41.309446729275855 L 113.9025 74.99999999999999 Z M 108.69055327072414 94.45125 L 75 113.9025 L 41.30944672927587 94.45125 L 41.30944672927588 55.54875 L 74.99999999999999 36.0975 L 108.69055327072411 55.548749999999984 L 108.69055327072412 94.45125 L 75.00000000000001 113.9025 L 41.30944672927587 94.45124999999999 L 41.309446729275855 55.54875000000003 L 74.99999999999999 36.0975 L 108.69055327072414 55.54875 L 108.69055327072414 94.45124999999996 Z " fill="#303080" opacity="0.9" /></svg>