<svg xmlns="http://www.w3.org/2000/svg" width="400" height="400" viewBox="0 0 400 400"><path d="M 390 200 L 295 364.54482671904333 L 105.00000000000004 364.5448267190434 L 10 200.00000000000003 L 104.99999999999991 35.4551732809567 L 295 35.45517328095667 L 390 199.99999999999994 L 294.99999999999994 364.5448267190434 L 105.00000000000014 364.54482671904344 L 10 200.00000000000006 L 105.00000000000003 35.45517328095664 L 294.99999999999983 35.45517328095656 L 390 199.99999999999991 Z M 364.5448267190434 295 L 200 390 L 35.45517328095664 295 L 35.45517328095667 104.99999999999999 L 199.99999999999997 10 L 364.5448267190433 104.99999999999991 L 364.54482671904333 295 L 200.00000000000006 390 L 35.455173280956615 294.99999999999994 L 35.45517328095656 105.00000000000016 L 199.99999999999991 10 L 364.5448267190434 105.00000000000001 L 364.54482671904344 294.99999999999983 Z " stroke="#cc3333" fill="#cc3333" /><path d="M 362.60350850062895 200 L 281.3017542503145 340.8187691060236 L 118.69824574968557 340.81876910602364 L 37.39649149937105 200.00000000000003 L 118.69824574968546 59.18123089397645 L 281.3017542503145 59.18123089397642 L 362.60350850062895 199.99999999999997 L 281.30175425031445 340.81876910602364 L 118.69824574968565 340.81876910602364 L 37.39649149937105 200.00000000000006 L 118.69824574968555 59.18123089397639 L 281.30175425031433 59.181230893976334 L 362.60350850062895 199.99999999999991 Z M 340.81876910602364 281.30175425031445 L 200 362.60350850062895 L 59.18123089397639 281.30175425031445 L 59.18123089397642 118.69824574968551 L 199.99999999999997 37.39649149937105 L 340.8187691060235 118.69824574968546 L 340.8187691060236 281.3017542503145 L 200.00000000000006 362.60350850062895 L 59.18123089397639 281.30175425031445 L 59.181230893976334 118.69824574968567 L 199.99999999999994 37.39649149937105 L 340.81876910602364 118.69824574968554 L 340.81876910602364 281.30175425031433 Z " stroke="#ffffff" fill="#ffffff" /><path d="M 353.0600339026956 200 L 276.5300169513478 332.55387766384183 L 123.46998304865224 332.55387766384183 L 46.93996609730442 200.00000000000003 L 123.46998304865214 67.44612233615823 L 276.5300169513478 67.4461223361582 L 353.0600339026956 199.99999999999997 L 276.53001695134776 332.55387766384183 L 123.46998304865232 332.5538776638419 L 46.93996609730442 200.00000000000006 L 123.46998304865224 67.44612233615817 L 276.53001695134765 67.44612233615811 L 353.0600339026956 199.99999999999991 Z M 332.55387766384183 276.53001695134776 L 200 353.0600339026956 L 67.44612233615817 276.53001695134776 L 67.4461223361582 123.4699830486522 L 199.99999999999997 46.93996609730442 L 332.5538776638418 123.46998304865214 L 332.55387766384183 276.53001695134776 L 200.00000000000006 353.0600339026956 L 67.44612233615817 276.53001695134776 L 67.44612233615811 123.46998304865234 L 199.99999999999994 46.93996609730442 L 332.55387766384183 123.46998304865222 L 332.5538776638419 276.53001695134765 Z " stroke="#33cc33" fill="#33cc33" /><path d="M 323.35836022193416 200 L 261.6791801109671 306.83147372138677 L 138.32081988903295 306.83147372138677 L 76.64163977806584 200.00000000000003 L 138.32081988903286 93.16852627861327 L 261.6791801109671 93.16852627861324 L 323.35836022193416 199.99999999999997 L 261.679180110967 306.83147372138677 L 138.320819889033 306.8314737213868 L 76.64163977806584 200.00000000000006 L 138.32081988903295 93.16852627861323 L 261.67918011096697 93.16852627861317 L 323.35836022193416 199.99999999999994 Z M 306.83147372138677 261.6791801109671 L 200 323.35836022193416 L 93.16852627861323 261.6791801109671 L 93.16852627861324 138.32081988903292 L 199.99999999999997 76.64163977806584 L 306.8314737213867 138.32081988903286 L 306.83147372138677 261.6791801109671 L 200.00000000000003 323.35836022193416 L 93.16852627861321 261.6791801109671 L 93.16852627861317 138.32081988903303 L 199.99999999999994 76.64163977806584 L 306.83147372138677 138.32081988903292 L 306.8314737213868 261.67918011096697 Z " stroke="#ffffff" fill="#ffffff" /><path d="M 302.7856516822635 200 L 251.39282584113175 289.0149855013789 L 148.60717415886828 289.01498550137893 L 97.21434831773651 200 L 148.60717415886822 110.98501449862113 L 251.39282584113175 110.9850144986211 L 302.7856516822635 199.99999999999997 L 251.39282584113172 289.01498550137893 L 148.60717415886833 289.014985501379 L 97.21434831773651 200.00000000000003 L 148.60717415886828 110.98501449862108 L 251.39282584113164 110.98501449862104 L 302.7856516822635 199.99999999999994 Z M 289.01498550137893 251.39282584113175 L 200 302.7856516822635 L 110.98501449862108 251.39282584113175 L 110.9850144986211 148.60717415886825 L 199.99999999999997 97.21434831773651 L 289.0149855013789 148.60717415886822 L 289.0149855013789 251.39282584113175 L 200.00000000000003 302.7856516822635 L 110.98501449862108 251.39282584113172 L 110.98501449862104 148.60717415886833 L 199.99999999999994 97.21434831773651 L 289.01498550137893 148.60717415886828 L 289.014985501379 251.39282584113164 Z " stroke="#337dcc" fill="#337dcc" /></svg>