<svg xmlns="http://www.w3.org/2000/svg" width="150" height="150" viewBox="0 0 150 150"><path d="M 146.25 75 L 110.625 136.70431001964124 L 39.375000000000014 136.70431001964124 L 3.75 75.00000000000001 L 39.37499999999997 13.295689980358766 L 110.625 13.295689980358752 L 146.25 74.99999999999999 L 110.62499999999997 136.70431001964127 L 39.37500000000006 136.7043100196413 L 3.75 75.00000000000003 L 39.375000000000014 13.295689980358745 L 110.62499999999994 13.29568998035871 L 146.25 74.99999999999997 Z M 136.70431001964124 110.625 L 75 146.25 L 13.295689980358745 110.625 L 13.295689980358752 39.37499999999999 L 74.99999999999999 3.75 L 136.70431001964124 39.37499999999997 L 136.70431001964124 110.625 L 75.00000000000003 146.25 L 13.295689980358738 110.62499999999999 L 13.29568998035871 39.37500000000006 L 74.99999999999997 3.75 L 136.70431001964124 39.37500000000001 L 136.7043100196413 110.62499999999994 Z " stroke="#b01010" fill="#b01010" /><path d="M 135.97631568773585 75 L 105.48815784386794 127.80703841475885 L 44.51184215613208 127.80703841475886 L 14.023684312264137 75.00000000000001 L 44.51184215613204 22.192961585241164 L 105.48815784386794 22.19296158524115 L 135.97631568773585 74.99999999999999 L 105.48815784386791 127.80703841475886 L 44.51184215613212 127.80703841475889 L 14.023684312264137 75.00000000000003 L 44.511842156132076 22.192961585241143 L 105.48815784386788 22.192961585241115 L 135.97631568773585 74.99999999999997 Z M 127.80703841475886 105.48815784386792 L 75 135.97631568773585 L 22.192961585241143 105.48815784386792 L 22.19296158524115 44.51184215613206 L 74.99999999999999 14.023684312264137 L 127.80703841475884 44.51184215613204 L 127.80703841475885 105.48815784386792 L 75.00000000000001 135.97631568773585 L 22.192961585241136 105.48815784386792 L 22.192961585241115 44.51184215613212 L 74.99999999999997 14.023684312264137 L 127.80703841475886 44.511842156132076 L 127.80703841475889 105.48815784386787 Z " stroke="rgba(255,255,255,0.8)" fill="rgba(255,255,255,0.8)" /><path d="M 132.39751271351085 75 L 103.69875635675542 124.70770412394067 L 46.30124364324459 124.70770412394069 L 17.602487286489158 75 L 46.301243643244554 25.292295876059335 L 103.69875635675542 25.292295876059327 L 132.39751271351085 74.99999999999999 L 103.69875635675541 124.70770412394069 L 46.301243643244625 124.70770412394072 L 17.602487286489158 75.00000000000001 L 46.30124364324459 25.29229587605932 L 103.69875635675537 25.292295876059292 L 132.39751271351085 74.99999999999997 Z M 124.70770412394069 103.69875635675541 L 75 132.39751271351085 L 25.29229587605932 103.69875635675541 L 25.292295876059327 46.301243643244575 L 74.99999999999999 17.602487286489158 L 124.70770412394066 46.301243643244554 L 124.70770412394067 103.69875635675542 L 75.00000000000001 132.39751271351085 L 25.292295876059313 103.69875635675541 L 25.292295876059292 46.301243643244625 L 74.99999999999997 17.602487286489158 L 124.70770412394069 46.30124364324459 L 124.70770412394072 103.69875635675537 Z " stroke="#0f9010" fill="#0f9010" /><path d="M 121.25938508322531 75 L 98.12969254161266 115.06180264552003 L 51.87030745838736 115.06180264552003 L 28.74061491677469 75 L 51.87030745838732 34.938197354479975 L 98.12969254161266 34.93819735447997 L 121.25938508322531 74.99999999999999 L 98.12969254161264 115.06180264552005 L 51.87030745838738 115.06180264552006 L 28.74061491677469 75.00000000000001 L 51.87030745838735 34.93819735447996 L 98.12969254161261 34.93819735447994 L 121.25938508322531 74.99999999999997 Z M 115.06180264552003 98.12969254161266 L 75 121.25938508322531 L 34.93819735447996 98.12969254161266 L 34.93819735447997 51.870307458387344 L 74.99999999999999 28.74061491677469 L 115.06180264552003 51.87030745838732 L 115.06180264552003 98.12969254161266 L 75.00000000000001 121.25938508322531 L 34.938197354479954 98.12969254161264 L 34.93819735447994 51.87030745838739 L 74.99999999999999 28.74061491677469 L 115.06180264552003 51.870307458387344 L 115.06180264552006 98.12969254161261 Z " stroke="#303080" fill="#303080" opacity="0.95" /></svg>