<svg xmlns="http://www.w3.org/2000/svg" width="400" height="400" viewBox="0 0 400 400"><path d="M 390 200 L 35.45517328095664 295 L 295 35.45517328095667 L 200.00000000000006 390 L 105.00000000000003 35.45517328095664 L 364.54482671904344 294.99999999999983 L 10 200.0000000000001 L 364.54482671904333 104.99999999999999 L 104.99999999999994 364.5448267190433 L 200.00000000000017 10 L 295.00000000000034 364.54482671904316 L 35.4551732809565 105.00000000000028 L 390 199.99999999999977 Z " stroke="#b01010" fill="#b01010" opacity="1" /><path d="M 351.74074690898556 240.65881059315808 L 88.9180636841725 311.08193631582753 L 159.34118940684195 48.259253091014415 L 351.7407469089856 240.658810593158 L 88.91806368417242 311.0819363158275 L 159.34118940684192 48.259253091014415 L 351.7407469089856 240.65881059315797 L 88.91806368417244 311.0819363158275 L 159.34118940684186 48.259253091014415 L 351.74074690898556 240.6588105931582 L 88.91806368417267 311.0819363158277 L 159.34118940684183 48.25925309101444 L 351.74074690898556 240.65881059315814 Z M 311.08193631582753 311.08193631582753 L 48.259253091014415 240.6588105931581 L 240.658810593158 48.259253091014386 L 311.08193631582753 311.0819363158275 L 48.259253091014415 240.65881059315808 L 240.65881059315797 48.259253091014386 L 311.0819363158275 311.08193631582753 L 48.259253091014415 240.6588105931581 L 240.6588105931579 48.259253091014386 L 311.08193631582753 311.08193631582753 L 48.25925309101436 240.65881059315788 L 240.65881059315788 48.25925309101436 L 311.08193631582753 311.08193631582753 Z M 240.65881059315808 351.74074690898556 L 48.259253091014415 159.34118940684192 L 311.0819363158275 88.91806368417245 L 240.65881059315808 351.74074690898556 L 48.259253091014386 159.34118940684203 L 311.08193631582753 88.91806368417252 L 240.6588105931581 351.74074690898556 L 48.259253091014386 159.3411894068421 L 311.0819363158273 88.9180636841723 L 240.65881059315814 351.74074690898556 L 48.25925309101444 159.34118940684183 L 311.0819363158273 88.91806368417228 L 240.6588105931582 351.74074690898556 Z M 159.34118940684192 351.74074690898556 L 88.91806368417245 88.9180636841725 L 351.74074690898556 159.34118940684195 L 159.34118940684203 351.7407469089856 L 88.91806368417254 88.91806368417242 L 351.74074690898556 159.3411894068419 L 159.34118940684206 351.7407469089856 L 88.91806368417251 88.91806368417245 L 351.74074690898567 159.34118940684215 L 159.3411894068421 351.7407469089856 L 88.91806368417247 88.91806368417247 L 351.7407469089856 159.3411894068421 L 159.34118940684215 351.74074690898567 Z " stroke="#b0b010" fill="#b0b010" opacity="1" /><path d="M 321.6505519561394 200 L 200 321.6505519561394 L 78.34944804386059 200.00000000000003 L 199.99999999999997 78.34944804386059 L 321.6505519561394 199.99999999999997 L 200.00000000000003 321.6505519561394 L 78.34944804386059 200.00000000000006 L 199.99999999999994 78.34944804386059 L 321.6505519561394 199.99999999999994 L 200.00000000000006 321.6505519561394 L 78.34944804386059 200.00000000000009 L 200.00000000000014 78.34944804386059 L 321.6505519561394 199.99999999999991 Z M 305.35246837841544 260.8252759780697 L 139.17472402193033 305.35246837841544 L 94.64753162158455 139.17472402193027 L 260.8252759780697 94.64753162158455 L 305.35246837841544 260.8252759780697 L 139.1747240219304 305.35246837841555 L 94.64753162158448 139.1747240219304 L 260.8252759780696 94.64753162158448 L 305.35246837841555 260.8252759780696 L 139.17472402193022 305.35246837841544 L 94.64753162158446 139.17472402193042 L 260.8252759780698 94.64753162158456 L 305.35246837841555 260.82527597806956 Z M 260.8252759780697 305.35246837841544 L 94.64753162158453 260.8252759780697 L 139.17472402193025 94.64753162158456 L 305.35246837841544 139.17472402193025 L 260.82527597806967 305.3524683784155 L 94.64753162158452 260.82527597806967 L 139.17472402193033 94.64753162158453 L 305.35246837841544 139.1747240219303 L 260.8252759780697 305.35246837841544 L 94.64753162158455 260.8252759780697 L 139.1747240219301 94.64753162158465 L 305.35246837841544 139.17472402193027 L 260.8252759780699 305.3524683784153 Z " stroke="#0f9010" fill="#0f9010" opacity="1" /><path d="M 300.97620773691347 227.05649331786324 L 227.05649331786324 300.97620773691347 L 126.08028558094982 273.9197144190502 L 99.02379226308656 172.94350668213676 L 172.94350668213679 99.02379226308656 L 273.9197144190502 126.08028558094979 L 300.97620773691347 227.0564933178632 L 227.05649331786324 300.97620773691347 L 126.08028558094976 273.91971441905014 L 99.02379226308655 172.94350668213684 L 172.94350668213676 99.02379226308658 L 273.91971441905025 126.08028558094983 L 300.97620773691347 227.05649331786316 Z M 273.9197144190502 273.9197144190502 L 172.94350668213676 300.97620773691347 L 99.02379226308658 227.05649331786327 L 126.08028558094979 126.08028558094982 L 227.0564933178632 99.02379226308655 L 300.97620773691347 172.94350668213676 L 273.9197144190502 273.9197144190502 L 172.9435066821368 300.97620773691347 L 99.02379226308656 227.05649331786324 L 126.08028558094985 126.08028558094976 L 227.05649331786316 99.02379226308655 L 300.9762077369134 172.94350668213673 L 273.91971441905014 273.91971441905025 Z " stroke="#1010b0" fill="#1010b0" opacity="0.7" /></svg>